<svg xmlns="http://www.w3.org/2000/svg" viewBox="0 0 64 64">
  <defs><linearGradient id="relay-tile" x1="0" y1="0" x2="1" y2="1"><stop offset="0" stop-color="#8b5cf6"/><stop offset="1" stop-color="#4f46e5"/></linearGradient></defs>
  <rect width="64" height="64" rx="15" fill="url(#relay-tile)"/>
  <rect x="11.25" y="11.25" width="8" height="8" rx="1.8" fill="#5eead4"/><rect x="20.25" y="11.25" width="8" height="8" rx="1.8" fill="#5eead4"/><rect x="29.25" y="11.25" width="8" height="8" rx="1.8" fill="#5eead4"/><rect x="38.25" y="11.25" width="8" height="8" rx="1.8" fill="#5eead4"/><rect x="11.25" y="20.25" width="8" height="8" rx="1.8" fill="#5eead4"/><rect x="47.25" y="20.25" width="8" height="8" rx="1.8" fill="#5eead4"/><rect x="11.25" y="29.25" width="8" height="8" rx="1.8" fill="#5eead4"/><rect x="20.25" y="29.25" width="8" height="8" rx="1.8" fill="#5eead4"/><rect x="29.25" y="29.25" width="8" height="8" rx="1.8" fill="#5eead4"/><rect x="38.25" y="29.25" width="8" height="8" rx="1.8" fill="#5eead4"/><rect x="11.25" y="38.25" width="8" height="8" rx="1.8" fill="#5eead4"/><rect x="38.25" y="38.25" width="8" height="8" rx="1.8" fill="#5eead4"/><rect x="11.25" y="47.25" width="8" height="8" rx="1.8" fill="#5eead4"/><rect x="47.25" y="47.25" width="8" height="8" rx="1.8" fill="#5eead4"/><rect x="8.75" y="8.75" width="8" height="8" rx="1.8" fill="#ffffff"/><rect x="17.75" y="8.75" width="8" height="8" rx="1.8" fill="#ffffff"/><rect x="26.75" y="8.75" width="8" height="8" rx="1.8" fill="#ffffff"/><rect x="35.75" y="8.75" width="8" height="8" rx="1.8" fill="#ffffff"/><rect x="8.75" y="17.75" width="8" height="8" rx="1.8" fill="#ffffff"/><rect x="44.75" y="17.75" width="8" height="8" rx="1.8" fill="#ffffff"/><rect x="8.75" y="26.75" width="8" height="8" rx="1.8" fill="#ffffff"/><rect x="17.75" y="26.75" width="8" height="8" rx="1.8" fill="#ffffff"/><rect x="26.75" y="26.75" width="8" height="8" rx="1.8" fill="#ffffff"/><rect x="35.75" y="26.75" width="8" height="8" rx="1.8" fill="#ffffff"/><rect x="8.75" y="35.75" width="8" height="8" rx="1.8" fill="#ffffff"/><rect x="35.75" y="35.75" width="8" height="8" rx="1.8" fill="#ffffff"/><rect x="8.75" y="44.75" width="8" height="8" rx="1.8" fill="#ffffff"/><rect x="44.75" y="44.75" width="8" height="8" rx="1.8" fill="#ffffff"/>
</svg>
